<svg width="3056" height="971" viewBox="0 0 3056 971" fill="none" xmlns="http://www.w3.org/2000/svg">
<path d="M67 227.172L877.092 694.879" stroke="url(#paint0_linear_3592_18422)" stroke-width="267.261"/>
<path d="M67 694.879L877.092 227.172" stroke="url(#paint1_linear_3592_18422)" stroke-width="267.261"/>
<path d="M481.254 0L481.254 922.05" stroke="url(#paint2_linear_3592_18422)" stroke-width="267.261"/>
<path d="M1314.59 792.025H1208.08L1483.7 129.606H1591.15L1866.76 792.025H1761.19L1674.3 584.611H1400.55L1314.59 792.025ZM1437.92 494.918H1636.93L1537.89 255.737L1437.92 494.918ZM2015.71 741.573L1826.05 344.495H1926.95L2065.23 635.063L2200.7 344.495H2300.67L2011.97 970.477H1912L2015.71 741.573ZM2573.63 427.648C2569.27 425.78 2564.91 423.911 2560.55 422.042C2556.82 420.797 2552.46 419.551 2547.47 418.305C2542.49 417.059 2537.2 416.437 2531.59 416.437C2513.53 416.437 2496.71 419.551 2481.14 425.779C2465.57 431.385 2452.18 439.171 2440.96 449.137C2429.75 459.103 2420.72 470.937 2413.87 484.64C2407.64 497.721 2404.53 511.735 2404.53 526.684L2403.59 792.025H2312.97V344.495H2384.91L2403.59 394.013C2416.05 375.95 2432.24 361.624 2452.18 351.035C2472.73 339.824 2498.27 334.218 2528.79 334.218C2548.72 334.218 2571.45 337.021 2596.99 342.627L2573.63 427.648ZM3015.49 344.495V792.025H2938.88L2924.87 740.639C2909.29 761.193 2889.36 776.765 2865.07 787.354C2840.78 797.942 2816.18 803.237 2791.26 803.237C2760.12 803.237 2730.84 797.32 2703.44 785.485C2676.65 773.028 2652.98 756.21 2632.43 735.033C2612.5 713.855 2596.62 688.941 2584.78 660.289C2572.95 631.637 2567.03 601.117 2567.03 568.727C2567.03 536.338 2572.95 505.818 2584.78 477.166C2596.62 448.514 2612.5 423.599 2632.43 402.422C2652.98 381.245 2676.65 364.739 2703.44 352.904C2730.84 340.447 2760.12 334.218 2791.26 334.218C2816.18 334.218 2840.16 339.201 2863.2 349.167C2886.25 358.51 2906.8 373.459 2924.87 394.013L2938.88 344.495H3015.49ZM2791.26 722.887C2809.32 722.887 2826.45 718.838 2842.65 710.741C2858.84 702.644 2872.86 691.744 2884.69 678.041C2896.53 663.715 2905.87 647.209 2912.72 628.523C2919.57 609.837 2923 589.905 2923 568.727C2923 547.55 2919.57 527.618 2912.72 508.932C2905.87 490.246 2896.53 474.052 2884.69 460.349C2872.86 446.023 2858.84 434.811 2842.65 426.714C2826.45 418.617 2809.32 414.568 2791.26 414.568C2773.2 414.568 2756.07 418.617 2739.87 426.714C2723.68 434.811 2709.67 446.023 2697.83 460.349C2686 474.052 2676.65 490.246 2669.8 508.932C2662.95 527.618 2659.52 547.55 2659.52 568.727C2659.52 589.905 2662.95 609.837 2669.8 628.523C2676.65 647.209 2686 663.715 2697.83 678.041C2709.67 691.744 2723.68 702.644 2739.87 710.741C2756.07 718.838 2773.2 722.887 2791.26 722.887Z" fill="#222836"/>
<defs>
<linearGradient id="paint0_linear_3592_18422" x1="66.75" y1="227.605" x2="876.842" y2="695.312" gradientUnits="userSpaceOnUse">
<stop stop-color="#B1DFFF"/>
<stop offset="0.269231" stop-color="#80B5FF"/>
<stop offset="0.769231" stop-color="#80B5FF"/>
<stop offset="1" stop-color="#B1DFFF"/>
</linearGradient>
<linearGradient id="paint1_linear_3592_18422" x1="67.25" y1="695.312" x2="877.342" y2="227.605" gradientUnits="userSpaceOnUse">
<stop stop-color="#B1DFFF"/>
<stop offset="0.269231" stop-color="#80B5FF"/>
<stop offset="0.769231" stop-color="#80B5FF"/>
<stop offset="1" stop-color="#B1DFFF"/>
</linearGradient>
<linearGradient id="paint2_linear_3592_18422" x1="480.754" y1="0" x2="480.754" y2="922.05" gradientUnits="userSpaceOnUse">
<stop stop-color="#B1DFFF"/>
<stop offset="0.269231" stop-color="#80B5FF"/>
<stop offset="0.769231" stop-color="#80B5FF"/>
<stop offset="1" stop-color="#B1DFFF"/>
</linearGradient>
</defs>
</svg>
